<mxfile host="app.diagrams.net" modified="2023-10-27T09:25:39.800Z" agent="Mozilla/5.0 (Windows NT 10.0; Win64; x64) AppleWebKit/537.36 (KHTML, like Gecko) Chrome/118.0.0.0 Safari/537.36" etag="7IjlQKNnmpPaeuVCxGrR" version="22.0.8" type="device">
  <diagram name="Page-1" id="2XO2LengAirlZbvnj2li">
    <mxGraphModel dx="3460" dy="853" grid="1" gridSize="10" guides="1" tooltips="1" connect="1" arrows="1" fold="1" page="0" pageScale="1" pageWidth="827" pageHeight="1169" background="none" math="0" shadow="0">
      <root>
        <mxCell id="0" />
        <mxCell id="1" parent="0" />
        <mxCell id="hs-0_rZzQlPcWZ09cHOU-4" style="edgeStyle=orthogonalEdgeStyle;rounded=0;orthogonalLoop=1;jettySize=auto;html=1;entryX=0.75;entryY=1;entryDx=0;entryDy=0;endArrow=none;endFill=0;exitX=0.5;exitY=0;exitDx=0;exitDy=0;" parent="1" source="O8HM-fu1kj8_n5oqzd3N-30" target="O8HM-fu1kj8_n5oqzd3N-19" edge="1">
          <mxGeometry relative="1" as="geometry">
            <mxPoint x="700" y="680" as="sourcePoint" />
            <mxPoint x="650" y="600" as="targetPoint" />
          </mxGeometry>
        </mxCell>
        <mxCell id="3tfj7b-K6udZwVdpCUiz-7" value="Assumptions&lt;br&gt;All fitness classes are conducted by only one fitness instructor&lt;br&gt;All craft workshops are conducted by only one craft instructor&lt;br&gt;All cooking classes are conducted by only one cooking instructor&lt;br&gt;&lt;br&gt;One chef can conduct only one cooking class at a time&lt;br&gt;One fitness instructor can conduct only one fitness class at a time&lt;br style=&quot;border-color: var(--border-color);&quot;&gt;One craft instructor can conduct only one craft workshop at a time&lt;br&gt;&lt;br&gt;On-site experiences can be conducted at multiple residences.Ba&lt;br&gt;&lt;br&gt;One customer must book at least one accommodation&lt;br&gt;One customer can book more than one accommodation&lt;br&gt;&lt;br&gt;All buses are assumed to have the same seating capacity" style="rounded=1;whiteSpace=wrap;html=1;align=left;" parent="1" vertex="1">
          <mxGeometry x="-840" y="1920" width="600" height="400" as="geometry" />
        </mxCell>
        <mxCell id="3tfj7b-K6udZwVdpCUiz-8" value="Business Questions&lt;br&gt;1. Can any of the on-site experiences have more than one staff member conducting the class? If so, please specify which experiences.&lt;br&gt;- All on-site experiences can have more than one staff member conducting it&lt;br&gt;&lt;br&gt;2. Do customers have to stay at the provided accommodations in order to participate in the experiences and have meals at the dining suites?&lt;br&gt;- Yes they must stay at the residences&lt;br&gt;&lt;br&gt;3. Can housekeeping attendants be assigned multiple accommodations to maintain?&lt;br&gt;- Yes&amp;nbsp;&lt;br&gt;&lt;br&gt;4. Do any of the residences have more than one dining suite?&lt;br&gt;- Yes&lt;br&gt;&lt;br&gt;5. Can an excursion be run by many drivers?&lt;br&gt;- Yes&lt;br&gt;&lt;br&gt;5. Can one guide oversee many off-site experiences?&lt;br&gt;&lt;br&gt;&lt;br&gt;3* How many housekeeping attendants are allocated to maintain an accommodation and ?&lt;br style=&quot;border-color: var(--border-color);&quot;&gt;- One accommodation must have at least 1 attendant and at most 1" style="rounded=1;whiteSpace=wrap;html=1;align=left;" parent="1" vertex="1">
          <mxGeometry x="-240" y="1920" width="600" height="400" as="geometry" />
        </mxCell>
        <mxCell id="3tfj7b-K6udZwVdpCUiz-123" value="Staff" style="swimlane;fontStyle=0;childLayout=stackLayout;horizontal=1;startSize=30;horizontalStack=0;resizeParent=1;resizeParentMax=0;resizeLast=0;collapsible=1;marginBottom=0;whiteSpace=wrap;html=1;" parent="1" vertex="1">
          <mxGeometry y="240" width="200" height="180" as="geometry">
            <mxRectangle x="140" y="250" width="60" height="30" as="alternateBounds" />
          </mxGeometry>
        </mxCell>
        <mxCell id="3tfj7b-K6udZwVdpCUiz-124" value="w1956123_staffID" style="text;strokeColor=none;fillColor=none;align=left;verticalAlign=middle;spacingLeft=4;spacingRight=4;overflow=hidden;points=[[0,0.5],[1,0.5]];portConstraint=eastwest;rotatable=0;whiteSpace=wrap;html=1;" parent="3tfj7b-K6udZwVdpCUiz-123" vertex="1">
          <mxGeometry y="30" width="200" height="30" as="geometry" />
        </mxCell>
        <mxCell id="3tfj7b-K6udZwVdpCUiz-125" value="w1956123_firstName" style="text;strokeColor=none;fillColor=none;align=left;verticalAlign=middle;spacingLeft=4;spacingRight=4;overflow=hidden;points=[[0,0.5],[1,0.5]];portConstraint=eastwest;rotatable=0;whiteSpace=wrap;html=1;" parent="3tfj7b-K6udZwVdpCUiz-123" vertex="1">
          <mxGeometry y="60" width="200" height="30" as="geometry" />
        </mxCell>
        <mxCell id="O8HM-fu1kj8_n5oqzd3N-2" value="w1956123_lastName" style="text;strokeColor=none;fillColor=none;align=left;verticalAlign=middle;spacingLeft=4;spacingRight=4;overflow=hidden;points=[[0,0.5],[1,0.5]];portConstraint=eastwest;rotatable=0;whiteSpace=wrap;html=1;" parent="3tfj7b-K6udZwVdpCUiz-123" vertex="1">
          <mxGeometry y="90" width="200" height="30" as="geometry" />
        </mxCell>
        <mxCell id="O8HM-fu1kj8_n5oqzd3N-35" value="w1956123_role" style="text;strokeColor=none;fillColor=none;align=left;verticalAlign=middle;spacingLeft=4;spacingRight=4;overflow=hidden;points=[[0,0.5],[1,0.5]];portConstraint=eastwest;rotatable=0;whiteSpace=wrap;html=1;" parent="3tfj7b-K6udZwVdpCUiz-123" vertex="1">
          <mxGeometry y="120" width="200" height="30" as="geometry" />
        </mxCell>
        <mxCell id="O8HM-fu1kj8_n5oqzd3N-3" value="w1956123_contactNum" style="text;strokeColor=#b85450;fillColor=#f8cecc;align=left;verticalAlign=middle;spacingLeft=4;spacingRight=4;overflow=hidden;points=[[0,0.5],[1,0.5]];portConstraint=eastwest;rotatable=0;whiteSpace=wrap;html=1;" parent="3tfj7b-K6udZwVdpCUiz-123" vertex="1">
          <mxGeometry y="150" width="200" height="30" as="geometry" />
        </mxCell>
        <mxCell id="3gxDku77F4ImKOpyEmJM-104" style="edgeStyle=orthogonalEdgeStyle;shape=connector;rounded=0;orthogonalLoop=1;jettySize=auto;html=1;exitX=0.5;exitY=0;exitDx=0;exitDy=0;entryX=0.5;entryY=1;entryDx=0;entryDy=0;labelBackgroundColor=default;strokeColor=#d79b00;align=center;verticalAlign=middle;fontFamily=Helvetica;fontSize=11;fontColor=default;endArrow=block;endFill=0;fillColor=#ffe6cc;endSize=15;" parent="1" source="O8HM-fu1kj8_n5oqzd3N-19" target="3tfj7b-K6udZwVdpCUiz-123" edge="1">
          <mxGeometry relative="1" as="geometry">
            <Array as="points">
              <mxPoint x="620" y="520" />
              <mxPoint x="100" y="520" />
            </Array>
          </mxGeometry>
        </mxCell>
        <mxCell id="O8HM-fu1kj8_n5oqzd3N-19" value="Driver" style="swimlane;fontStyle=0;childLayout=stackLayout;horizontal=1;startSize=30;horizontalStack=0;resizeParent=1;resizeParentMax=0;resizeLast=0;collapsible=1;marginBottom=0;whiteSpace=wrap;html=1;" parent="1" vertex="1">
          <mxGeometry x="520" y="560" width="200" height="90" as="geometry">
            <mxRectangle x="530" y="560" width="60" height="30" as="alternateBounds" />
          </mxGeometry>
        </mxCell>
        <mxCell id="O8HM-fu1kj8_n5oqzd3N-25" value="w1956123 drivingLicenseNum" style="text;strokeColor=none;fillColor=none;align=left;verticalAlign=middle;spacingLeft=4;spacingRight=4;overflow=hidden;points=[[0,0.5],[1,0.5]];portConstraint=eastwest;rotatable=0;whiteSpace=wrap;html=1;" parent="O8HM-fu1kj8_n5oqzd3N-19" vertex="1">
          <mxGeometry y="30" width="200" height="30" as="geometry" />
        </mxCell>
        <mxCell id="3gxDku77F4ImKOpyEmJM-156" value="w1956123&amp;nbsp; offRoadExperience" style="text;strokeColor=none;fillColor=none;align=left;verticalAlign=middle;spacingLeft=4;spacingRight=4;overflow=hidden;points=[[0,0.5],[1,0.5]];portConstraint=eastwest;rotatable=0;whiteSpace=wrap;html=1;" parent="O8HM-fu1kj8_n5oqzd3N-19" vertex="1">
          <mxGeometry y="60" width="200" height="30" as="geometry" />
        </mxCell>
        <mxCell id="3gxDku77F4ImKOpyEmJM-101" style="edgeStyle=orthogonalEdgeStyle;shape=connector;rounded=0;orthogonalLoop=1;jettySize=auto;html=1;entryX=0.5;entryY=1;entryDx=0;entryDy=0;labelBackgroundColor=default;strokeColor=#d79b00;align=center;verticalAlign=middle;fontFamily=Helvetica;fontSize=11;fontColor=default;endArrow=block;endFill=0;fillColor=#ffe6cc;endSize=15;" parent="1" source="O8HM-fu1kj8_n5oqzd3N-28" target="3tfj7b-K6udZwVdpCUiz-123" edge="1">
          <mxGeometry relative="1" as="geometry">
            <Array as="points">
              <mxPoint x="260" y="520" />
              <mxPoint x="100" y="520" />
            </Array>
          </mxGeometry>
        </mxCell>
        <mxCell id="O8HM-fu1kj8_n5oqzd3N-28" value="Instructor" style="swimlane;fontStyle=0;childLayout=stackLayout;horizontal=1;startSize=30;horizontalStack=0;resizeParent=1;resizeParentMax=0;resizeLast=0;collapsible=1;marginBottom=0;whiteSpace=wrap;html=1;" parent="1" vertex="1">
          <mxGeometry x="160" y="560" width="200" height="90" as="geometry">
            <mxRectangle x="160" y="560" width="60" height="30" as="alternateBounds" />
          </mxGeometry>
        </mxCell>
        <mxCell id="O8HM-fu1kj8_n5oqzd3N-29" value="w1956123 fieldOfExpertise" style="text;strokeColor=none;fillColor=none;align=left;verticalAlign=middle;spacingLeft=4;spacingRight=4;overflow=hidden;points=[[0,0.5],[1,0.5]];portConstraint=eastwest;rotatable=0;whiteSpace=wrap;html=1;" parent="O8HM-fu1kj8_n5oqzd3N-28" vertex="1">
          <mxGeometry y="30" width="200" height="30" as="geometry" />
        </mxCell>
        <mxCell id="3gxDku77F4ImKOpyEmJM-153" value="w1956123 instructorCertification" style="text;strokeColor=none;fillColor=none;align=left;verticalAlign=middle;spacingLeft=4;spacingRight=4;overflow=hidden;points=[[0,0.5],[1,0.5]];portConstraint=eastwest;rotatable=0;whiteSpace=wrap;html=1;" parent="O8HM-fu1kj8_n5oqzd3N-28" vertex="1">
          <mxGeometry y="60" width="200" height="30" as="geometry" />
        </mxCell>
        <mxCell id="3gxDku77F4ImKOpyEmJM-33" style="edgeStyle=orthogonalEdgeStyle;rounded=0;orthogonalLoop=1;jettySize=auto;html=1;entryX=0.75;entryY=0;entryDx=0;entryDy=0;endArrow=none;endFill=0;" parent="1" source="O8HM-fu1kj8_n5oqzd3N-30" target="3gxDku77F4ImKOpyEmJM-2" edge="1">
          <mxGeometry relative="1" as="geometry" />
        </mxCell>
        <mxCell id="O8HM-fu1kj8_n5oqzd3N-30" value="Bus" style="swimlane;fontStyle=0;childLayout=stackLayout;horizontal=1;startSize=30;horizontalStack=0;resizeParent=1;resizeParentMax=0;resizeLast=0;collapsible=1;marginBottom=0;whiteSpace=wrap;html=1;" parent="1" vertex="1">
          <mxGeometry x="630" y="710" width="200" height="180" as="geometry">
            <mxRectangle x="310" y="310" width="60" height="30" as="alternateBounds" />
          </mxGeometry>
        </mxCell>
        <mxCell id="O8HM-fu1kj8_n5oqzd3N-32" value="w1956123 busNum" style="text;strokeColor=none;fillColor=none;align=left;verticalAlign=middle;spacingLeft=4;spacingRight=4;overflow=hidden;points=[[0,0.5],[1,0.5]];portConstraint=eastwest;rotatable=0;whiteSpace=wrap;html=1;" parent="O8HM-fu1kj8_n5oqzd3N-30" vertex="1">
          <mxGeometry y="30" width="200" height="30" as="geometry" />
        </mxCell>
        <mxCell id="VAsdtVh3B15Hhn_zoiJs-10" value="w1956123 model" style="text;strokeColor=none;fillColor=none;align=left;verticalAlign=middle;spacingLeft=4;spacingRight=4;overflow=hidden;points=[[0,0.5],[1,0.5]];portConstraint=eastwest;rotatable=0;whiteSpace=wrap;html=1;" parent="O8HM-fu1kj8_n5oqzd3N-30" vertex="1">
          <mxGeometry y="60" width="200" height="30" as="geometry" />
        </mxCell>
        <mxCell id="O8HM-fu1kj8_n5oqzd3N-33" value="w1956123 insuranceNum" style="text;strokeColor=none;fillColor=none;align=left;verticalAlign=middle;spacingLeft=4;spacingRight=4;overflow=hidden;points=[[0,0.5],[1,0.5]];portConstraint=eastwest;rotatable=0;whiteSpace=wrap;html=1;" parent="O8HM-fu1kj8_n5oqzd3N-30" vertex="1">
          <mxGeometry y="90" width="200" height="30" as="geometry" />
        </mxCell>
        <mxCell id="O8HM-fu1kj8_n5oqzd3N-36" value="w1956123 registrationNum" style="text;strokeColor=none;fillColor=none;align=left;verticalAlign=middle;spacingLeft=4;spacingRight=4;overflow=hidden;points=[[0,0.5],[1,0.5]];portConstraint=eastwest;rotatable=0;whiteSpace=wrap;html=1;" parent="O8HM-fu1kj8_n5oqzd3N-30" vertex="1">
          <mxGeometry y="120" width="200" height="30" as="geometry" />
        </mxCell>
        <mxCell id="3gxDku77F4ImKOpyEmJM-139" value="w1956123 seatingCapacity" style="text;strokeColor=none;fillColor=none;align=left;verticalAlign=middle;spacingLeft=4;spacingRight=4;overflow=hidden;points=[[0,0.5],[1,0.5]];portConstraint=eastwest;rotatable=0;whiteSpace=wrap;html=1;" parent="O8HM-fu1kj8_n5oqzd3N-30" vertex="1">
          <mxGeometry y="150" width="200" height="30" as="geometry" />
        </mxCell>
        <mxCell id="O8HM-fu1kj8_n5oqzd3N-43" value="" style="group" parent="1" vertex="1" connectable="0">
          <mxGeometry x="920" y="560" width="200" height="110" as="geometry" />
        </mxCell>
        <mxCell id="O8HM-fu1kj8_n5oqzd3N-12" value="Guide" style="swimlane;fontStyle=0;childLayout=stackLayout;horizontal=1;startSize=30;horizontalStack=0;resizeParent=1;resizeParentMax=0;resizeLast=0;collapsible=1;marginBottom=0;whiteSpace=wrap;html=1;" parent="O8HM-fu1kj8_n5oqzd3N-43" vertex="1">
          <mxGeometry width="200" height="120" as="geometry">
            <mxRectangle x="990" y="545" width="90" height="30" as="alternateBounds" />
          </mxGeometry>
        </mxCell>
        <mxCell id="O8HM-fu1kj8_n5oqzd3N-13" value="w1956123_languages" style="text;strokeColor=none;fillColor=none;align=left;verticalAlign=middle;spacingLeft=4;spacingRight=4;overflow=hidden;points=[[0,0.5],[1,0.5]];portConstraint=eastwest;rotatable=0;whiteSpace=wrap;html=1;" parent="O8HM-fu1kj8_n5oqzd3N-12" vertex="1">
          <mxGeometry y="30" width="200" height="30" as="geometry" />
        </mxCell>
        <mxCell id="O8HM-fu1kj8_n5oqzd3N-14" value="w1956123_schedule" style="text;strokeColor=none;fillColor=none;align=left;verticalAlign=middle;spacingLeft=4;spacingRight=4;overflow=hidden;points=[[0,0.5,0,0,0],[0.5,0.97,0,0,0],[1,0.5,0,0,0]];portConstraint=eastwest;rotatable=0;whiteSpace=wrap;html=1;" parent="O8HM-fu1kj8_n5oqzd3N-12" vertex="1">
          <mxGeometry y="60" width="200" height="30" as="geometry" />
        </mxCell>
        <mxCell id="3gxDku77F4ImKOpyEmJM-157" value="w1956123_locationKnowledge" style="text;strokeColor=none;fillColor=none;align=left;verticalAlign=middle;spacingLeft=4;spacingRight=4;overflow=hidden;points=[[0,0.5,0,0,0],[0.5,0.97,0,0,0],[1,0.5,0,0,0]];portConstraint=eastwest;rotatable=0;whiteSpace=wrap;html=1;" parent="O8HM-fu1kj8_n5oqzd3N-12" vertex="1">
          <mxGeometry y="90" width="200" height="30" as="geometry" />
        </mxCell>
        <mxCell id="3gxDku77F4ImKOpyEmJM-30" style="edgeStyle=orthogonalEdgeStyle;rounded=0;orthogonalLoop=1;jettySize=auto;html=1;entryX=0.25;entryY=1;entryDx=0;entryDy=0;exitX=0.25;exitY=0;exitDx=0;exitDy=0;endArrow=none;endFill=0;" parent="1" source="3gxDku77F4ImKOpyEmJM-2" target="O8HM-fu1kj8_n5oqzd3N-19" edge="1">
          <mxGeometry relative="1" as="geometry">
            <mxPoint x="530" y="720" as="targetPoint" />
            <Array as="points">
              <mxPoint x="570" y="860" />
              <mxPoint x="570" y="860" />
            </Array>
          </mxGeometry>
        </mxCell>
        <mxCell id="3gxDku77F4ImKOpyEmJM-34" style="edgeStyle=orthogonalEdgeStyle;rounded=0;orthogonalLoop=1;jettySize=auto;html=1;entryX=0.5;entryY=0;entryDx=0;entryDy=0;fillColor=#ffe6cc;strokeColor=#d79b00;endArrow=block;endFill=0;endSize=15;" parent="1" source="3gxDku77F4ImKOpyEmJM-2" target="3gxDku77F4ImKOpyEmJM-14" edge="1">
          <mxGeometry relative="1" as="geometry">
            <Array as="points">
              <mxPoint x="620" y="1120" />
              <mxPoint x="740" y="1120" />
            </Array>
          </mxGeometry>
        </mxCell>
        <mxCell id="3gxDku77F4ImKOpyEmJM-2" value="w1956123 excursion" style="swimlane;fontStyle=0;childLayout=stackLayout;horizontal=1;startSize=30;horizontalStack=0;resizeParent=1;resizeParentMax=0;resizeLast=0;collapsible=1;marginBottom=0;whiteSpace=wrap;html=1;" parent="1" vertex="1">
          <mxGeometry x="520" y="960" width="200" height="90" as="geometry">
            <mxRectangle x="310" y="310" width="60" height="30" as="alternateBounds" />
          </mxGeometry>
        </mxCell>
        <mxCell id="3gxDku77F4ImKOpyEmJM-4" value="w1956123 landmarksToBeVisited" style="text;strokeColor=none;fillColor=none;align=left;verticalAlign=middle;spacingLeft=4;spacingRight=4;overflow=hidden;points=[[0,0.5],[1,0.5]];portConstraint=eastwest;rotatable=0;whiteSpace=wrap;html=1;" parent="3gxDku77F4ImKOpyEmJM-2" vertex="1">
          <mxGeometry y="30" width="200" height="30" as="geometry" />
        </mxCell>
        <mxCell id="3gxDku77F4ImKOpyEmJM-7" value="w1956123&amp;nbsp;" style="text;strokeColor=none;fillColor=none;align=left;verticalAlign=middle;spacingLeft=4;spacingRight=4;overflow=hidden;points=[[0,0.5],[1,0.5]];portConstraint=eastwest;rotatable=0;whiteSpace=wrap;html=1;" parent="3gxDku77F4ImKOpyEmJM-2" vertex="1">
          <mxGeometry y="60" width="200" height="30" as="geometry" />
        </mxCell>
        <mxCell id="3gxDku77F4ImKOpyEmJM-35" style="edgeStyle=orthogonalEdgeStyle;rounded=0;orthogonalLoop=1;jettySize=auto;html=1;entryX=0.5;entryY=0;entryDx=0;entryDy=0;fillColor=#ffe6cc;strokeColor=#d79b00;endArrow=block;endFill=0;endSize=15;" parent="1" source="3gxDku77F4ImKOpyEmJM-11" target="3gxDku77F4ImKOpyEmJM-14" edge="1">
          <mxGeometry relative="1" as="geometry">
            <Array as="points">
              <mxPoint x="860" y="1120" />
              <mxPoint x="740" y="1120" />
            </Array>
          </mxGeometry>
        </mxCell>
        <mxCell id="3gxDku77F4ImKOpyEmJM-11" value="WalkingHike" style="swimlane;fontStyle=0;childLayout=stackLayout;horizontal=1;startSize=30;horizontalStack=0;resizeParent=1;resizeParentMax=0;resizeLast=0;collapsible=1;marginBottom=0;whiteSpace=wrap;html=1;" parent="1" vertex="1">
          <mxGeometry x="760" y="960" width="200" height="120" as="geometry">
            <mxRectangle x="310" y="310" width="60" height="30" as="alternateBounds" />
          </mxGeometry>
        </mxCell>
        <mxCell id="3gxDku77F4ImKOpyEmJM-12" value="w1956123 trailDetails" style="text;strokeColor=none;fillColor=none;align=left;verticalAlign=middle;spacingLeft=4;spacingRight=4;overflow=hidden;points=[[0,0.5],[1,0.5]];portConstraint=eastwest;rotatable=0;whiteSpace=wrap;html=1;" parent="3gxDku77F4ImKOpyEmJM-11" vertex="1">
          <mxGeometry y="30" width="200" height="30" as="geometry" />
        </mxCell>
        <mxCell id="3gxDku77F4ImKOpyEmJM-144" value="w1956123 hikeEquipmentRequired" style="text;strokeColor=none;fillColor=none;align=left;verticalAlign=middle;spacingLeft=4;spacingRight=4;overflow=hidden;points=[[0,0.5],[1,0.5]];portConstraint=eastwest;rotatable=0;whiteSpace=wrap;html=1;" parent="3gxDku77F4ImKOpyEmJM-11" vertex="1">
          <mxGeometry y="60" width="200" height="30" as="geometry" />
        </mxCell>
        <mxCell id="3gxDku77F4ImKOpyEmJM-13" value="w1956123 trailDifficulty" style="text;strokeColor=none;fillColor=none;align=left;verticalAlign=middle;spacingLeft=4;spacingRight=4;overflow=hidden;points=[[0,0.5],[1,0.5]];portConstraint=eastwest;rotatable=0;whiteSpace=wrap;html=1;" parent="3gxDku77F4ImKOpyEmJM-11" vertex="1">
          <mxGeometry y="90" width="200" height="30" as="geometry" />
        </mxCell>
        <mxCell id="3gxDku77F4ImKOpyEmJM-37" style="edgeStyle=orthogonalEdgeStyle;rounded=0;orthogonalLoop=1;jettySize=auto;html=1;entryX=0.5;entryY=0;entryDx=0;entryDy=0;fillColor=#ffe6cc;strokeColor=#d79b00;endArrow=block;endFill=0;endSize=15;" parent="1" source="3gxDku77F4ImKOpyEmJM-14" target="3gxDku77F4ImKOpyEmJM-20" edge="1">
          <mxGeometry relative="1" as="geometry">
            <Array as="points">
              <mxPoint x="740" y="1310" />
              <mxPoint x="440" y="1310" />
            </Array>
          </mxGeometry>
        </mxCell>
        <mxCell id="3gxDku77F4ImKOpyEmJM-14" value="offSiteExperience" style="swimlane;fontStyle=0;childLayout=stackLayout;horizontal=1;startSize=30;horizontalStack=0;resizeParent=1;resizeParentMax=0;resizeLast=0;collapsible=1;marginBottom=0;whiteSpace=wrap;html=1;" parent="1" vertex="1">
          <mxGeometry x="640" y="1160" width="200" height="120" as="geometry">
            <mxRectangle x="640" y="1160" width="60" height="30" as="alternateBounds" />
          </mxGeometry>
        </mxCell>
        <mxCell id="3gxDku77F4ImKOpyEmJM-130" value="w1956123 guideAttending" style="text;strokeColor=none;fillColor=none;align=left;verticalAlign=middle;spacingLeft=4;spacingRight=4;overflow=hidden;points=[[0,0.5],[1,0.5]];portConstraint=eastwest;rotatable=0;whiteSpace=wrap;html=1;" parent="3gxDku77F4ImKOpyEmJM-14" vertex="1">
          <mxGeometry y="30" width="200" height="30" as="geometry" />
        </mxCell>
        <mxCell id="6Exis9yLlak__4d9PDnf-49" value="w1956123 offSiteExperienceType" style="text;strokeColor=none;fillColor=none;align=left;verticalAlign=middle;spacingLeft=4;spacingRight=4;overflow=hidden;points=[[0,0.5],[1,0.5]];portConstraint=eastwest;rotatable=0;whiteSpace=wrap;html=1;" vertex="1" parent="3gxDku77F4ImKOpyEmJM-14">
          <mxGeometry y="60" width="200" height="30" as="geometry" />
        </mxCell>
        <mxCell id="3gxDku77F4ImKOpyEmJM-131" value="w1956123 location" style="text;strokeColor=none;fillColor=none;align=left;verticalAlign=middle;spacingLeft=4;spacingRight=4;overflow=hidden;points=[[0,0.5],[1,0.5]];portConstraint=eastwest;rotatable=0;whiteSpace=wrap;html=1;" parent="3gxDku77F4ImKOpyEmJM-14" vertex="1">
          <mxGeometry y="90" width="200" height="30" as="geometry" />
        </mxCell>
        <mxCell id="3gxDku77F4ImKOpyEmJM-36" style="edgeStyle=orthogonalEdgeStyle;rounded=0;orthogonalLoop=1;jettySize=auto;html=1;entryX=0.5;entryY=0;entryDx=0;entryDy=0;fillColor=#ffe6cc;strokeColor=#d79b00;endArrow=block;endFill=0;endSize=15;" parent="1" source="3gxDku77F4ImKOpyEmJM-17" target="3gxDku77F4ImKOpyEmJM-20" edge="1">
          <mxGeometry relative="1" as="geometry">
            <Array as="points">
              <mxPoint x="140" y="1310" />
              <mxPoint x="440" y="1310" />
            </Array>
          </mxGeometry>
        </mxCell>
        <mxCell id="3gxDku77F4ImKOpyEmJM-87" style="edgeStyle=orthogonalEdgeStyle;rounded=0;orthogonalLoop=1;jettySize=auto;html=1;entryX=0.5;entryY=1;entryDx=0;entryDy=0;endArrow=none;endFill=0;exitX=0;exitY=0.5;exitDx=0;exitDy=0;" parent="1" source="3gxDku77F4ImKOpyEmJM-17" target="3gxDku77F4ImKOpyEmJM-79" edge="1">
          <mxGeometry relative="1" as="geometry">
            <Array as="points">
              <mxPoint x="-60" y="1205" />
              <mxPoint x="-60" y="1545" />
              <mxPoint x="-820" y="1545" />
            </Array>
            <mxPoint x="40" y="1229.9966666666667" as="sourcePoint" />
            <mxPoint x="-820" y="1519.93" as="targetPoint" />
          </mxGeometry>
        </mxCell>
        <mxCell id="3gxDku77F4ImKOpyEmJM-17" value="onSiteExperience" style="swimlane;fontStyle=0;childLayout=stackLayout;horizontal=1;startSize=30;horizontalStack=0;resizeParent=1;resizeParentMax=0;resizeLast=0;collapsible=1;marginBottom=0;whiteSpace=wrap;html=1;" parent="1" vertex="1">
          <mxGeometry x="40" y="1160" width="200" height="90" as="geometry">
            <mxRectangle x="40" y="1160" width="60" height="30" as="alternateBounds" />
          </mxGeometry>
        </mxCell>
        <mxCell id="3gxDku77F4ImKOpyEmJM-18" value="w1956123 classType" style="text;strokeColor=none;fillColor=none;align=left;verticalAlign=middle;spacingLeft=4;spacingRight=4;overflow=hidden;points=[[0,0.5],[1,0.5]];portConstraint=eastwest;rotatable=0;whiteSpace=wrap;html=1;" parent="3gxDku77F4ImKOpyEmJM-17" vertex="1">
          <mxGeometry y="30" width="200" height="30" as="geometry" />
        </mxCell>
        <mxCell id="3gxDku77F4ImKOpyEmJM-19" value="w1956123 conductingInstructor" style="text;strokeColor=none;fillColor=none;align=left;verticalAlign=middle;spacingLeft=4;spacingRight=4;overflow=hidden;points=[[0,0.5],[1,0.5]];portConstraint=eastwest;rotatable=0;whiteSpace=wrap;html=1;" parent="3gxDku77F4ImKOpyEmJM-17" vertex="1">
          <mxGeometry y="60" width="200" height="30" as="geometry" />
        </mxCell>
        <mxCell id="3gxDku77F4ImKOpyEmJM-96" style="edgeStyle=orthogonalEdgeStyle;rounded=0;orthogonalLoop=1;jettySize=auto;html=1;entryX=0;entryY=0.5;entryDx=0;entryDy=0;endArrow=none;endFill=0;" parent="1" source="3gxDku77F4ImKOpyEmJM-20" target="3gxDku77F4ImKOpyEmJM-74" edge="1">
          <mxGeometry relative="1" as="geometry">
            <mxPoint x="89.35483870967742" y="1090" as="targetPoint" />
            <Array as="points">
              <mxPoint x="440" y="1630" />
              <mxPoint x="-1360" y="1630" />
              <mxPoint x="-1360" y="745" />
            </Array>
          </mxGeometry>
        </mxCell>
        <mxCell id="3gxDku77F4ImKOpyEmJM-41" style="edgeStyle=orthogonalEdgeStyle;rounded=0;orthogonalLoop=1;jettySize=auto;html=1;entryX=0.5;entryY=0;entryDx=0;entryDy=0;fillColor=#ffe6cc;strokeColor=#d79b00;endArrow=block;endFill=0;endSize=15;" parent="1" source="3gxDku77F4ImKOpyEmJM-23" target="3gxDku77F4ImKOpyEmJM-17" edge="1">
          <mxGeometry relative="1" as="geometry">
            <Array as="points">
              <mxPoint x="-100" y="1110" />
              <mxPoint x="140" y="1110" />
            </Array>
          </mxGeometry>
        </mxCell>
        <mxCell id="3gxDku77F4ImKOpyEmJM-23" value="cookingClass" style="swimlane;fontStyle=0;childLayout=stackLayout;horizontal=1;startSize=30;horizontalStack=0;resizeParent=1;resizeParentMax=0;resizeLast=0;collapsible=1;marginBottom=0;whiteSpace=wrap;html=1;" parent="1" vertex="1">
          <mxGeometry x="-200" y="960" width="200" height="90" as="geometry">
            <mxRectangle x="310" y="310" width="60" height="30" as="alternateBounds" />
          </mxGeometry>
        </mxCell>
        <mxCell id="3gxDku77F4ImKOpyEmJM-24" value="w1956123 recipesTaught" style="text;strokeColor=none;fillColor=none;align=left;verticalAlign=middle;spacingLeft=4;spacingRight=4;overflow=hidden;points=[[0,0.5],[1,0.5]];portConstraint=eastwest;rotatable=0;whiteSpace=wrap;html=1;" parent="3gxDku77F4ImKOpyEmJM-23" vertex="1">
          <mxGeometry y="30" width="200" height="30" as="geometry" />
        </mxCell>
        <mxCell id="3gxDku77F4ImKOpyEmJM-25" value="w1956123 utensilsUsed" style="text;strokeColor=none;fillColor=none;align=left;verticalAlign=middle;spacingLeft=4;spacingRight=4;overflow=hidden;points=[[0,0.5],[1,0.5]];portConstraint=eastwest;rotatable=0;whiteSpace=wrap;html=1;" parent="3gxDku77F4ImKOpyEmJM-23" vertex="1">
          <mxGeometry y="60" width="200" height="30" as="geometry" />
        </mxCell>
        <mxCell id="3gxDku77F4ImKOpyEmJM-42" style="edgeStyle=orthogonalEdgeStyle;rounded=0;orthogonalLoop=1;jettySize=auto;html=1;fillColor=#ffe6cc;strokeColor=#d79b00;endArrow=block;endFill=0;endSize=15;" parent="1" source="3gxDku77F4ImKOpyEmJM-26" edge="1">
          <mxGeometry relative="1" as="geometry">
            <mxPoint x="140" y="1160" as="targetPoint" />
          </mxGeometry>
        </mxCell>
        <mxCell id="3gxDku77F4ImKOpyEmJM-26" value="fitnessClass" style="swimlane;fontStyle=0;childLayout=stackLayout;horizontal=1;startSize=30;horizontalStack=0;resizeParent=1;resizeParentMax=0;resizeLast=0;collapsible=1;marginBottom=0;whiteSpace=wrap;html=1;" parent="1" vertex="1">
          <mxGeometry x="40" y="960" width="200" height="90" as="geometry">
            <mxRectangle x="310" y="310" width="60" height="30" as="alternateBounds" />
          </mxGeometry>
        </mxCell>
        <mxCell id="3gxDku77F4ImKOpyEmJM-148" value="w1956123 equipmentUsed" style="text;strokeColor=none;fillColor=none;align=left;verticalAlign=middle;spacingLeft=4;spacingRight=4;overflow=hidden;points=[[0,0.5],[1,0.5]];portConstraint=eastwest;rotatable=0;whiteSpace=wrap;html=1;" parent="3gxDku77F4ImKOpyEmJM-26" vertex="1">
          <mxGeometry y="30" width="200" height="30" as="geometry" />
        </mxCell>
        <mxCell id="akNkCJ-vPhZ8xIYkLyeb-22" value="w1956123 typeOfPhysicalActivity" style="text;strokeColor=none;fillColor=none;align=left;verticalAlign=middle;spacingLeft=4;spacingRight=4;overflow=hidden;points=[[0,0.5],[1,0.5]];portConstraint=eastwest;rotatable=0;whiteSpace=wrap;html=1;" parent="3gxDku77F4ImKOpyEmJM-26" vertex="1">
          <mxGeometry y="60" width="200" height="30" as="geometry" />
        </mxCell>
        <mxCell id="3gxDku77F4ImKOpyEmJM-43" style="edgeStyle=orthogonalEdgeStyle;rounded=0;orthogonalLoop=1;jettySize=auto;html=1;fillColor=#ffe6cc;strokeColor=#d79b00;endArrow=block;endFill=0;endSize=15;" parent="1" source="3gxDku77F4ImKOpyEmJM-38" edge="1">
          <mxGeometry relative="1" as="geometry">
            <mxPoint x="140" y="1160" as="targetPoint" />
            <Array as="points">
              <mxPoint x="380" y="1110" />
              <mxPoint x="140" y="1110" />
            </Array>
          </mxGeometry>
        </mxCell>
        <mxCell id="3gxDku77F4ImKOpyEmJM-38" value="craftWorkshop" style="swimlane;fontStyle=0;childLayout=stackLayout;horizontal=1;startSize=30;horizontalStack=0;resizeParent=1;resizeParentMax=0;resizeLast=0;collapsible=1;marginBottom=0;whiteSpace=wrap;html=1;" parent="1" vertex="1">
          <mxGeometry x="280" y="960" width="200" height="120" as="geometry">
            <mxRectangle x="310" y="310" width="60" height="30" as="alternateBounds" />
          </mxGeometry>
        </mxCell>
        <mxCell id="akNkCJ-vPhZ8xIYkLyeb-23" value="w1956123 craftsTaught" style="text;strokeColor=none;fillColor=none;align=left;verticalAlign=middle;spacingLeft=4;spacingRight=4;overflow=hidden;points=[[0,0.5],[1,0.5]];portConstraint=eastwest;rotatable=0;whiteSpace=wrap;html=1;" parent="3gxDku77F4ImKOpyEmJM-38" vertex="1">
          <mxGeometry y="30" width="200" height="30" as="geometry" />
        </mxCell>
        <mxCell id="3gxDku77F4ImKOpyEmJM-58" value="w1956123 materialsUsed" style="text;strokeColor=none;fillColor=none;align=left;verticalAlign=middle;spacingLeft=4;spacingRight=4;overflow=hidden;points=[[0,0.5],[1,0.5]];portConstraint=eastwest;rotatable=0;whiteSpace=wrap;html=1;" parent="3gxDku77F4ImKOpyEmJM-38" vertex="1">
          <mxGeometry y="60" width="200" height="30" as="geometry" />
        </mxCell>
        <mxCell id="3gxDku77F4ImKOpyEmJM-46" value="w1956123 toolsUsed" style="text;strokeColor=none;fillColor=none;align=left;verticalAlign=middle;spacingLeft=4;spacingRight=4;overflow=hidden;points=[[0,0.5],[1,0.5]];portConstraint=eastwest;rotatable=0;whiteSpace=wrap;html=1;" parent="3gxDku77F4ImKOpyEmJM-38" vertex="1">
          <mxGeometry y="90" width="200" height="30" as="geometry" />
        </mxCell>
        <mxCell id="3gxDku77F4ImKOpyEmJM-57" style="edgeStyle=orthogonalEdgeStyle;rounded=0;orthogonalLoop=1;jettySize=auto;html=1;entryX=0.5;entryY=1;entryDx=0;entryDy=0;fillColor=#ffe6cc;strokeColor=#d79b00;endArrow=block;endFill=0;endSize=15;" parent="1" source="3gxDku77F4ImKOpyEmJM-44" target="O8HM-fu1kj8_n5oqzd3N-28" edge="1">
          <mxGeometry relative="1" as="geometry" />
        </mxCell>
        <mxCell id="3gxDku77F4ImKOpyEmJM-60" style="edgeStyle=orthogonalEdgeStyle;rounded=0;orthogonalLoop=1;jettySize=auto;html=1;entryX=0.5;entryY=0;entryDx=0;entryDy=0;endArrow=none;endFill=0;" parent="1" source="3gxDku77F4ImKOpyEmJM-44" target="3gxDku77F4ImKOpyEmJM-38" edge="1">
          <mxGeometry relative="1" as="geometry" />
        </mxCell>
        <mxCell id="3gxDku77F4ImKOpyEmJM-44" value="craftInstructor" style="swimlane;fontStyle=0;childLayout=stackLayout;horizontal=1;startSize=30;horizontalStack=0;resizeParent=1;resizeParentMax=0;resizeLast=0;collapsible=1;marginBottom=0;whiteSpace=wrap;html=1;" parent="1" vertex="1">
          <mxGeometry x="280" y="760" width="200" height="60" as="geometry">
            <mxRectangle x="310" y="310" width="60" height="30" as="alternateBounds" />
          </mxGeometry>
        </mxCell>
        <mxCell id="3gxDku77F4ImKOpyEmJM-154" value="w1956123&amp;nbsp;" style="text;strokeColor=none;fillColor=none;align=left;verticalAlign=middle;spacingLeft=4;spacingRight=4;overflow=hidden;points=[[0,0.5],[1,0.5]];portConstraint=eastwest;rotatable=0;whiteSpace=wrap;html=1;" parent="3gxDku77F4ImKOpyEmJM-44" vertex="1">
          <mxGeometry y="30" width="200" height="30" as="geometry" />
        </mxCell>
        <mxCell id="3gxDku77F4ImKOpyEmJM-56" style="edgeStyle=orthogonalEdgeStyle;rounded=0;orthogonalLoop=1;jettySize=auto;html=1;entryX=0.5;entryY=1;entryDx=0;entryDy=0;fillColor=#ffe6cc;strokeColor=#d79b00;endArrow=block;endFill=0;endSize=15;" parent="1" source="3gxDku77F4ImKOpyEmJM-47" target="O8HM-fu1kj8_n5oqzd3N-28" edge="1">
          <mxGeometry relative="1" as="geometry" />
        </mxCell>
        <mxCell id="3gxDku77F4ImKOpyEmJM-59" style="edgeStyle=orthogonalEdgeStyle;rounded=0;orthogonalLoop=1;jettySize=auto;html=1;entryX=0.5;entryY=0;entryDx=0;entryDy=0;endArrow=none;endFill=0;" parent="1" source="3gxDku77F4ImKOpyEmJM-47" target="3gxDku77F4ImKOpyEmJM-26" edge="1">
          <mxGeometry relative="1" as="geometry" />
        </mxCell>
        <mxCell id="3gxDku77F4ImKOpyEmJM-47" value="fitnessInstructor" style="swimlane;fontStyle=0;childLayout=stackLayout;horizontal=1;startSize=30;horizontalStack=0;resizeParent=1;resizeParentMax=0;resizeLast=0;collapsible=1;marginBottom=0;whiteSpace=wrap;html=1;" parent="1" vertex="1">
          <mxGeometry x="40" y="760" width="200" height="60" as="geometry">
            <mxRectangle x="310" y="310" width="60" height="30" as="alternateBounds" />
          </mxGeometry>
        </mxCell>
        <mxCell id="3gxDku77F4ImKOpyEmJM-48" value="w1956123&amp;nbsp;" style="text;strokeColor=none;fillColor=none;align=left;verticalAlign=middle;spacingLeft=4;spacingRight=4;overflow=hidden;points=[[0,0.5],[1,0.5]];portConstraint=eastwest;rotatable=0;whiteSpace=wrap;html=1;" parent="3gxDku77F4ImKOpyEmJM-47" vertex="1">
          <mxGeometry y="30" width="200" height="30" as="geometry" />
        </mxCell>
        <mxCell id="3gxDku77F4ImKOpyEmJM-72" style="edgeStyle=orthogonalEdgeStyle;rounded=0;orthogonalLoop=1;jettySize=auto;html=1;entryX=0.5;entryY=0;entryDx=0;entryDy=0;exitX=0.75;exitY=1;exitDx=0;exitDy=0;endArrow=none;endFill=0;" parent="1" source="3gxDku77F4ImKOpyEmJM-50" target="3gxDku77F4ImKOpyEmJM-23" edge="1">
          <mxGeometry relative="1" as="geometry" />
        </mxCell>
        <mxCell id="3gxDku77F4ImKOpyEmJM-73" style="edgeStyle=orthogonalEdgeStyle;rounded=0;orthogonalLoop=1;jettySize=auto;html=1;exitX=0.25;exitY=1;exitDx=0;exitDy=0;entryX=0.5;entryY=0;entryDx=0;entryDy=0;endArrow=none;endFill=0;" parent="1" source="3gxDku77F4ImKOpyEmJM-50" target="3gxDku77F4ImKOpyEmJM-61" edge="1">
          <mxGeometry relative="1" as="geometry" />
        </mxCell>
        <mxCell id="3gxDku77F4ImKOpyEmJM-102" style="edgeStyle=orthogonalEdgeStyle;shape=connector;rounded=0;orthogonalLoop=1;jettySize=auto;html=1;entryX=0.5;entryY=1;entryDx=0;entryDy=0;labelBackgroundColor=default;strokeColor=#d79b00;align=center;verticalAlign=middle;fontFamily=Helvetica;fontSize=11;fontColor=default;endArrow=block;endFill=0;fillColor=#ffe6cc;endSize=15;" parent="1" source="3gxDku77F4ImKOpyEmJM-50" target="3tfj7b-K6udZwVdpCUiz-123" edge="1">
          <mxGeometry relative="1" as="geometry">
            <Array as="points">
              <mxPoint x="-240" y="520" />
              <mxPoint x="100" y="520" />
            </Array>
          </mxGeometry>
        </mxCell>
        <mxCell id="3gxDku77F4ImKOpyEmJM-50" value="Chef" style="swimlane;fontStyle=0;childLayout=stackLayout;horizontal=1;startSize=30;horizontalStack=0;resizeParent=1;resizeParentMax=0;resizeLast=0;collapsible=1;marginBottom=0;whiteSpace=wrap;html=1;" parent="1" vertex="1">
          <mxGeometry x="-340" y="560" width="200" height="90" as="geometry">
            <mxRectangle x="310" y="310" width="60" height="30" as="alternateBounds" />
          </mxGeometry>
        </mxCell>
        <mxCell id="3gxDku77F4ImKOpyEmJM-125" value="w1956123 recipeList" style="text;strokeColor=none;fillColor=none;align=left;verticalAlign=middle;spacingLeft=4;spacingRight=4;overflow=hidden;points=[[0,0.5],[1,0.5]];portConstraint=eastwest;rotatable=0;whiteSpace=wrap;html=1;" parent="3gxDku77F4ImKOpyEmJM-50" vertex="1">
          <mxGeometry y="30" width="200" height="30" as="geometry" />
        </mxCell>
        <mxCell id="3gxDku77F4ImKOpyEmJM-128" value="w1956123 recipeSpecialties" style="text;strokeColor=none;fillColor=none;align=left;verticalAlign=middle;spacingLeft=4;spacingRight=4;overflow=hidden;points=[[0,0.5],[1,0.5]];portConstraint=eastwest;rotatable=0;whiteSpace=wrap;html=1;" parent="3gxDku77F4ImKOpyEmJM-50" vertex="1">
          <mxGeometry y="60" width="200" height="30" as="geometry" />
        </mxCell>
        <mxCell id="3gxDku77F4ImKOpyEmJM-97" style="edgeStyle=orthogonalEdgeStyle;rounded=0;orthogonalLoop=1;jettySize=auto;html=1;entryX=0.75;entryY=0;entryDx=0;entryDy=0;endArrow=none;endFill=0;" parent="1" source="3gxDku77F4ImKOpyEmJM-52" target="3gxDku77F4ImKOpyEmJM-75" edge="1">
          <mxGeometry relative="1" as="geometry">
            <Array as="points">
              <mxPoint x="-660" y="800" />
              <mxPoint x="-890" y="800" />
            </Array>
          </mxGeometry>
        </mxCell>
        <mxCell id="3gxDku77F4ImKOpyEmJM-103" style="edgeStyle=orthogonalEdgeStyle;shape=connector;rounded=0;orthogonalLoop=1;jettySize=auto;html=1;labelBackgroundColor=default;strokeColor=#d79b00;align=center;verticalAlign=middle;fontFamily=Helvetica;fontSize=11;fontColor=default;endArrow=block;endFill=0;entryX=0.5;entryY=1;entryDx=0;entryDy=0;fillColor=#ffe6cc;endSize=15;" parent="1" source="3gxDku77F4ImKOpyEmJM-52" target="3tfj7b-K6udZwVdpCUiz-123" edge="1">
          <mxGeometry relative="1" as="geometry">
            <mxPoint x="70" y="310" as="targetPoint" />
            <Array as="points">
              <mxPoint x="-660" y="520" />
              <mxPoint x="100" y="520" />
            </Array>
          </mxGeometry>
        </mxCell>
        <mxCell id="3gxDku77F4ImKOpyEmJM-52" value="houseKeepingAttendant" style="swimlane;fontStyle=0;childLayout=stackLayout;horizontal=1;startSize=30;horizontalStack=0;resizeParent=1;resizeParentMax=0;resizeLast=0;collapsible=1;marginBottom=0;whiteSpace=wrap;html=1;" parent="1" vertex="1">
          <mxGeometry x="-760" y="560" width="200" height="90" as="geometry">
            <mxRectangle x="310" y="310" width="60" height="30" as="alternateBounds" />
          </mxGeometry>
        </mxCell>
        <mxCell id="3gxDku77F4ImKOpyEmJM-150" value="w1956123 cleaningSchedule" style="text;strokeColor=none;fillColor=none;align=left;verticalAlign=middle;spacingLeft=4;spacingRight=4;overflow=hidden;points=[[0,0.5],[1,0.5]];portConstraint=eastwest;rotatable=0;whiteSpace=wrap;html=1;" parent="3gxDku77F4ImKOpyEmJM-52" vertex="1">
          <mxGeometry y="30" width="200" height="30" as="geometry" />
        </mxCell>
        <mxCell id="3gxDku77F4ImKOpyEmJM-149" value="w1956123 cleaningSupplies" style="text;strokeColor=none;fillColor=none;align=left;verticalAlign=middle;spacingLeft=4;spacingRight=4;overflow=hidden;points=[[0,0.5],[1,0.5]];portConstraint=eastwest;rotatable=0;whiteSpace=wrap;html=1;" parent="3gxDku77F4ImKOpyEmJM-52" vertex="1">
          <mxGeometry y="60" width="200" height="30" as="geometry" />
        </mxCell>
        <mxCell id="3gxDku77F4ImKOpyEmJM-61" value="meal" style="swimlane;fontStyle=0;childLayout=stackLayout;horizontal=1;startSize=30;horizontalStack=0;resizeParent=1;resizeParentMax=0;resizeLast=0;collapsible=1;marginBottom=0;whiteSpace=wrap;html=1;" parent="1" vertex="1">
          <mxGeometry x="-480" y="890" width="200" height="180" as="geometry">
            <mxRectangle x="-480" y="960" width="60" height="30" as="alternateBounds" />
          </mxGeometry>
        </mxCell>
        <mxCell id="3gxDku77F4ImKOpyEmJM-63" value="w1956123 mealID" style="text;strokeColor=none;fillColor=none;align=left;verticalAlign=middle;spacingLeft=4;spacingRight=4;overflow=hidden;points=[[0,0.5],[1,0.5]];portConstraint=eastwest;rotatable=0;whiteSpace=wrap;html=1;" parent="3gxDku77F4ImKOpyEmJM-61" vertex="1">
          <mxGeometry y="30" width="200" height="30" as="geometry" />
        </mxCell>
        <mxCell id="3gxDku77F4ImKOpyEmJM-62" value="w1956123 mealType" style="text;strokeColor=none;fillColor=none;align=left;verticalAlign=middle;spacingLeft=4;spacingRight=4;overflow=hidden;points=[[0,0.5],[1,0.5]];portConstraint=eastwest;rotatable=0;whiteSpace=wrap;html=1;" parent="3gxDku77F4ImKOpyEmJM-61" vertex="1">
          <mxGeometry y="60" width="200" height="30" as="geometry" />
        </mxCell>
        <mxCell id="VAsdtVh3B15Hhn_zoiJs-3" value="w1956123 mealPrice" style="text;strokeColor=none;fillColor=none;align=left;verticalAlign=middle;spacingLeft=4;spacingRight=4;overflow=hidden;points=[[0,0.5],[1,0.5]];portConstraint=eastwest;rotatable=0;whiteSpace=wrap;html=1;" parent="3gxDku77F4ImKOpyEmJM-61" vertex="1">
          <mxGeometry y="90" width="200" height="30" as="geometry" />
        </mxCell>
        <mxCell id="VAsdtVh3B15Hhn_zoiJs-6" value="w1956123 availability" style="text;strokeColor=none;fillColor=none;align=left;verticalAlign=middle;spacingLeft=4;spacingRight=4;overflow=hidden;points=[[0,0.5],[1,0.5]];portConstraint=eastwest;rotatable=0;whiteSpace=wrap;html=1;" parent="3gxDku77F4ImKOpyEmJM-61" vertex="1">
          <mxGeometry y="120" width="200" height="30" as="geometry" />
        </mxCell>
        <mxCell id="VAsdtVh3B15Hhn_zoiJs-4" value="w1956123 typeOfDiet" style="text;strokeColor=none;fillColor=none;align=left;verticalAlign=middle;spacingLeft=4;spacingRight=4;overflow=hidden;points=[[0,0.5],[1,0.5]];portConstraint=eastwest;rotatable=0;whiteSpace=wrap;html=1;" parent="3gxDku77F4ImKOpyEmJM-61" vertex="1">
          <mxGeometry y="150" width="200" height="30" as="geometry" />
        </mxCell>
        <mxCell id="3gxDku77F4ImKOpyEmJM-71" style="edgeStyle=orthogonalEdgeStyle;rounded=0;orthogonalLoop=1;jettySize=auto;html=1;entryX=0.5;entryY=1;entryDx=0;entryDy=0;fillColor=#ffe6cc;strokeColor=#d79b00;endArrow=block;endFill=0;endSize=15;" parent="1" source="3gxDku77F4ImKOpyEmJM-64" target="3gxDku77F4ImKOpyEmJM-61" edge="1">
          <mxGeometry relative="1" as="geometry">
            <mxPoint x="-400" y="1040" as="targetPoint" />
          </mxGeometry>
        </mxCell>
        <mxCell id="3gxDku77F4ImKOpyEmJM-84" style="edgeStyle=orthogonalEdgeStyle;rounded=0;orthogonalLoop=1;jettySize=auto;html=1;entryX=0.5;entryY=0;entryDx=0;entryDy=0;endArrow=none;endFill=0;" parent="1" source="3gxDku77F4ImKOpyEmJM-64" target="3gxDku77F4ImKOpyEmJM-78" edge="1">
          <mxGeometry relative="1" as="geometry" />
        </mxCell>
        <mxCell id="3gxDku77F4ImKOpyEmJM-64" value="collective" style="swimlane;fontStyle=0;childLayout=stackLayout;horizontal=1;startSize=30;horizontalStack=0;resizeParent=1;resizeParentMax=0;resizeLast=0;collapsible=1;marginBottom=0;whiteSpace=wrap;html=1;" parent="1" vertex="1">
          <mxGeometry x="-360" y="1160" width="200" height="90" as="geometry">
            <mxRectangle x="310" y="310" width="60" height="30" as="alternateBounds" />
          </mxGeometry>
        </mxCell>
        <mxCell id="3gxDku77F4ImKOpyEmJM-65" value="w1956123 numOfMembers" style="text;strokeColor=none;fillColor=none;align=left;verticalAlign=middle;spacingLeft=4;spacingRight=4;overflow=hidden;points=[[0,0.5],[1,0.5]];portConstraint=eastwest;rotatable=0;whiteSpace=wrap;html=1;" parent="3gxDku77F4ImKOpyEmJM-64" vertex="1">
          <mxGeometry y="30" width="200" height="30" as="geometry" />
        </mxCell>
        <mxCell id="3gxDku77F4ImKOpyEmJM-66" value="w1956123&amp;nbsp;" style="text;strokeColor=none;fillColor=none;align=left;verticalAlign=middle;spacingLeft=4;spacingRight=4;overflow=hidden;points=[[0,0.5],[1,0.5]];portConstraint=eastwest;rotatable=0;whiteSpace=wrap;html=1;" parent="3gxDku77F4ImKOpyEmJM-64" vertex="1">
          <mxGeometry y="60" width="200" height="30" as="geometry" />
        </mxCell>
        <mxCell id="3gxDku77F4ImKOpyEmJM-70" style="edgeStyle=orthogonalEdgeStyle;rounded=0;orthogonalLoop=1;jettySize=auto;html=1;entryX=0.5;entryY=1;entryDx=0;entryDy=0;fillColor=#ffe6cc;strokeColor=#d79b00;endArrow=block;endFill=0;endSize=15;" parent="1" source="3gxDku77F4ImKOpyEmJM-67" target="3gxDku77F4ImKOpyEmJM-61" edge="1">
          <mxGeometry relative="1" as="geometry" />
        </mxCell>
        <mxCell id="3gxDku77F4ImKOpyEmJM-80" style="edgeStyle=orthogonalEdgeStyle;rounded=0;orthogonalLoop=1;jettySize=auto;html=1;entryX=1;entryY=0.5;entryDx=0;entryDy=0;endArrow=none;endFill=0;" parent="1" source="3gxDku77F4ImKOpyEmJM-67" target="3gxDku77F4ImKOpyEmJM-75" edge="1">
          <mxGeometry relative="1" as="geometry">
            <Array as="points">
              <mxPoint x="-680" y="1190" />
              <mxPoint x="-680" y="970" />
            </Array>
          </mxGeometry>
        </mxCell>
        <mxCell id="3gxDku77F4ImKOpyEmJM-67" value="preBooked" style="swimlane;fontStyle=0;childLayout=stackLayout;horizontal=1;startSize=30;horizontalStack=0;resizeParent=1;resizeParentMax=0;resizeLast=0;collapsible=1;marginBottom=0;whiteSpace=wrap;html=1;" parent="1" vertex="1">
          <mxGeometry x="-600" y="1160" width="200" height="60" as="geometry">
            <mxRectangle x="-600" y="1160" width="60" height="30" as="alternateBounds" />
          </mxGeometry>
        </mxCell>
        <mxCell id="3gxDku77F4ImKOpyEmJM-68" value="w1956123 bookedCustomerID" style="text;strokeColor=none;fillColor=none;align=left;verticalAlign=middle;spacingLeft=4;spacingRight=4;overflow=hidden;points=[[0,0.5],[1,0.5]];portConstraint=eastwest;rotatable=0;whiteSpace=wrap;html=1;" parent="3gxDku77F4ImKOpyEmJM-67" vertex="1">
          <mxGeometry y="30" width="200" height="30" as="geometry" />
        </mxCell>
        <mxCell id="3gxDku77F4ImKOpyEmJM-83" style="edgeStyle=orthogonalEdgeStyle;rounded=0;orthogonalLoop=1;jettySize=auto;html=1;entryX=0;entryY=0.5;entryDx=0;entryDy=0;endArrow=none;endFill=0;exitX=0;exitY=0.5;exitDx=0;exitDy=0;" parent="1" source="3gxDku77F4ImKOpyEmJM-75" target="3gxDku77F4ImKOpyEmJM-79" edge="1">
          <mxGeometry relative="1" as="geometry">
            <Array as="points">
              <mxPoint x="-1240" y="970" />
              <mxPoint x="-1240" y="1435" />
            </Array>
            <mxPoint x="-1060" y="980" as="sourcePoint" />
          </mxGeometry>
        </mxCell>
        <mxCell id="3gxDku77F4ImKOpyEmJM-75" value="accommodation" style="swimlane;fontStyle=0;childLayout=stackLayout;horizontal=1;startSize=30;horizontalStack=0;resizeParent=1;resizeParentMax=0;resizeLast=0;collapsible=1;marginBottom=0;whiteSpace=wrap;html=1;" parent="1" vertex="1">
          <mxGeometry x="-1040" y="880" width="200" height="180" as="geometry">
            <mxRectangle x="-1040" y="960" width="60" height="30" as="alternateBounds" />
          </mxGeometry>
        </mxCell>
        <mxCell id="3gxDku77F4ImKOpyEmJM-117" value="w1956123 accomodationID" style="text;strokeColor=none;fillColor=none;align=left;verticalAlign=middle;spacingLeft=4;spacingRight=4;overflow=hidden;points=[[0,0.5],[1,0.5]];portConstraint=eastwest;rotatable=0;whiteSpace=wrap;html=1;" parent="3gxDku77F4ImKOpyEmJM-75" vertex="1">
          <mxGeometry y="30" width="200" height="30" as="geometry" />
        </mxCell>
        <mxCell id="VAsdtVh3B15Hhn_zoiJs-7" value="w1956123 accommodationType" style="text;strokeColor=none;fillColor=none;align=left;verticalAlign=middle;spacingLeft=4;spacingRight=4;overflow=hidden;points=[[0,0.5],[1,0.5]];portConstraint=eastwest;rotatable=0;whiteSpace=wrap;html=1;" parent="3gxDku77F4ImKOpyEmJM-75" vertex="1">
          <mxGeometry y="60" width="200" height="30" as="geometry" />
        </mxCell>
        <mxCell id="VAsdtVh3B15Hhn_zoiJs-9" value="w1956123 roomNum" style="text;strokeColor=none;fillColor=none;align=left;verticalAlign=middle;spacingLeft=4;spacingRight=4;overflow=hidden;points=[[0,0.5],[1,0.5]];portConstraint=eastwest;rotatable=0;whiteSpace=wrap;html=1;" parent="3gxDku77F4ImKOpyEmJM-75" vertex="1">
          <mxGeometry y="90" width="200" height="30" as="geometry" />
        </mxCell>
        <mxCell id="VAsdtVh3B15Hhn_zoiJs-8" value="w1956123 roomAvailability" style="text;strokeColor=none;fillColor=none;align=left;verticalAlign=middle;spacingLeft=4;spacingRight=4;overflow=hidden;points=[[0,0.5],[1,0.5]];portConstraint=eastwest;rotatable=0;whiteSpace=wrap;html=1;" parent="3gxDku77F4ImKOpyEmJM-75" vertex="1">
          <mxGeometry y="120" width="200" height="30" as="geometry" />
        </mxCell>
        <mxCell id="3gxDku77F4ImKOpyEmJM-151" value="w1956123 accommodationPrice" style="text;strokeColor=none;fillColor=none;align=left;verticalAlign=middle;spacingLeft=4;spacingRight=4;overflow=hidden;points=[[0,0.5],[1,0.5]];portConstraint=eastwest;rotatable=0;whiteSpace=wrap;html=1;" parent="3gxDku77F4ImKOpyEmJM-75" vertex="1">
          <mxGeometry y="150" width="200" height="30" as="geometry" />
        </mxCell>
        <mxCell id="3gxDku77F4ImKOpyEmJM-90" style="edgeStyle=orthogonalEdgeStyle;rounded=0;orthogonalLoop=1;jettySize=auto;html=1;exitX=0.5;exitY=0;exitDx=0;exitDy=0;entryX=0.5;entryY=1;entryDx=0;entryDy=0;fillColor=#ffe6cc;strokeColor=#d79b00;endArrow=block;endFill=0;endSize=15;" parent="1" source="3gxDku77F4ImKOpyEmJM-76" target="3gxDku77F4ImKOpyEmJM-75" edge="1">
          <mxGeometry relative="1" as="geometry" />
        </mxCell>
        <mxCell id="3gxDku77F4ImKOpyEmJM-76" value="fullyIntegratedApartment" style="swimlane;fontStyle=0;childLayout=stackLayout;horizontal=1;startSize=30;horizontalStack=0;resizeParent=1;resizeParentMax=0;resizeLast=0;collapsible=1;marginBottom=0;whiteSpace=wrap;html=1;" parent="1" vertex="1">
          <mxGeometry x="-1160" y="1160" width="200" height="90" as="geometry">
            <mxRectangle x="310" y="310" width="60" height="30" as="alternateBounds" />
          </mxGeometry>
        </mxCell>
        <mxCell id="3gxDku77F4ImKOpyEmJM-116" value="w1956123 numOfBedrooms" style="text;strokeColor=none;fillColor=none;align=left;verticalAlign=middle;spacingLeft=4;spacingRight=4;overflow=hidden;points=[[0,0.5],[1,0.5]];portConstraint=eastwest;rotatable=0;whiteSpace=wrap;html=1;" parent="3gxDku77F4ImKOpyEmJM-76" vertex="1">
          <mxGeometry y="30" width="200" height="30" as="geometry" />
        </mxCell>
        <mxCell id="3gxDku77F4ImKOpyEmJM-143" value="w1956123 otherRoomsAvailable" style="text;strokeColor=none;fillColor=none;align=left;verticalAlign=middle;spacingLeft=4;spacingRight=4;overflow=hidden;points=[[0,0.5],[1,0.5]];portConstraint=eastwest;rotatable=0;whiteSpace=wrap;html=1;" parent="3gxDku77F4ImKOpyEmJM-76" vertex="1">
          <mxGeometry y="60" width="200" height="30" as="geometry" />
        </mxCell>
        <mxCell id="3gxDku77F4ImKOpyEmJM-91" style="edgeStyle=orthogonalEdgeStyle;rounded=0;orthogonalLoop=1;jettySize=auto;html=1;exitX=0.5;exitY=0;exitDx=0;exitDy=0;entryX=0.5;entryY=1;entryDx=0;entryDy=0;fillColor=#ffe6cc;strokeColor=#d79b00;endArrow=block;endFill=0;endSize=15;" parent="1" source="3gxDku77F4ImKOpyEmJM-77" target="3gxDku77F4ImKOpyEmJM-75" edge="1">
          <mxGeometry relative="1" as="geometry" />
        </mxCell>
        <mxCell id="3gxDku77F4ImKOpyEmJM-77" value="standAloneRoom" style="swimlane;fontStyle=0;childLayout=stackLayout;horizontal=1;startSize=30;horizontalStack=0;resizeParent=1;resizeParentMax=0;resizeLast=0;collapsible=1;marginBottom=0;whiteSpace=wrap;html=1;" parent="1" vertex="1">
          <mxGeometry x="-920" y="1160" width="200" height="90" as="geometry">
            <mxRectangle x="310" y="310" width="60" height="30" as="alternateBounds" />
          </mxGeometry>
        </mxCell>
        <mxCell id="3gxDku77F4ImKOpyEmJM-114" value="w1956123 bedSize" style="text;strokeColor=none;fillColor=none;align=left;verticalAlign=middle;spacingLeft=4;spacingRight=4;overflow=hidden;points=[[0,0.5],[1,0.5]];portConstraint=eastwest;rotatable=0;whiteSpace=wrap;html=1;" parent="3gxDku77F4ImKOpyEmJM-77" vertex="1">
          <mxGeometry y="30" width="200" height="30" as="geometry" />
        </mxCell>
        <mxCell id="3gxDku77F4ImKOpyEmJM-115" value="w1956123 enSuiteBathroom" style="text;strokeColor=none;fillColor=none;align=left;verticalAlign=middle;spacingLeft=4;spacingRight=4;overflow=hidden;points=[[0,0.5],[1,0.5]];portConstraint=eastwest;rotatable=0;whiteSpace=wrap;html=1;" parent="3gxDku77F4ImKOpyEmJM-77" vertex="1">
          <mxGeometry y="60" width="200" height="30" as="geometry" />
        </mxCell>
        <mxCell id="3gxDku77F4ImKOpyEmJM-78" value="diningSuite" style="swimlane;fontStyle=0;childLayout=stackLayout;horizontal=1;startSize=30;horizontalStack=0;resizeParent=1;resizeParentMax=0;resizeLast=0;collapsible=1;marginBottom=0;whiteSpace=wrap;html=1;" parent="1" vertex="1">
          <mxGeometry x="-360" y="1360" width="200" height="150" as="geometry">
            <mxRectangle x="-360" y="1320" width="60" height="30" as="alternateBounds" />
          </mxGeometry>
        </mxCell>
        <mxCell id="3gxDku77F4ImKOpyEmJM-133" value="w1956123 diningSuiteID" style="text;strokeColor=none;fillColor=none;align=left;verticalAlign=middle;spacingLeft=4;spacingRight=4;overflow=hidden;points=[[0,0.5],[1,0.5]];portConstraint=eastwest;rotatable=0;whiteSpace=wrap;html=1;" parent="3gxDku77F4ImKOpyEmJM-78" vertex="1">
          <mxGeometry y="30" width="200" height="30" as="geometry" />
        </mxCell>
        <mxCell id="VAsdtVh3B15Hhn_zoiJs-1" value="w1956123 residence" style="text;strokeColor=none;fillColor=none;align=left;verticalAlign=middle;spacingLeft=4;spacingRight=4;overflow=hidden;points=[[0,0.5],[1,0.5]];portConstraint=eastwest;rotatable=0;whiteSpace=wrap;html=1;" parent="3gxDku77F4ImKOpyEmJM-78" vertex="1">
          <mxGeometry y="60" width="200" height="30" as="geometry" />
        </mxCell>
        <mxCell id="3gxDku77F4ImKOpyEmJM-135" value="w1956123 diningCapacity" style="text;strokeColor=none;fillColor=none;align=left;verticalAlign=middle;spacingLeft=4;spacingRight=4;overflow=hidden;points=[[0,0.5],[1,0.5]];portConstraint=eastwest;rotatable=0;whiteSpace=wrap;html=1;" parent="3gxDku77F4ImKOpyEmJM-78" vertex="1">
          <mxGeometry y="90" width="200" height="30" as="geometry" />
        </mxCell>
        <mxCell id="VAsdtVh3B15Hhn_zoiJs-2" value="w1956123 reservationSchedule" style="text;strokeColor=none;fillColor=none;align=left;verticalAlign=middle;spacingLeft=4;spacingRight=4;overflow=hidden;points=[[0,0.5],[1,0.5]];portConstraint=eastwest;rotatable=0;whiteSpace=wrap;html=1;" parent="3gxDku77F4ImKOpyEmJM-78" vertex="1">
          <mxGeometry y="120" width="200" height="30" as="geometry" />
        </mxCell>
        <mxCell id="3gxDku77F4ImKOpyEmJM-134" style="edgeStyle=orthogonalEdgeStyle;shape=connector;rounded=0;orthogonalLoop=1;jettySize=auto;html=1;labelBackgroundColor=default;strokeColor=default;align=center;verticalAlign=middle;fontFamily=Helvetica;fontSize=11;fontColor=default;endArrow=none;endFill=0;entryX=0;entryY=0.5;entryDx=0;entryDy=0;" parent="1" source="3gxDku77F4ImKOpyEmJM-79" target="3gxDku77F4ImKOpyEmJM-78" edge="1">
          <mxGeometry relative="1" as="geometry">
            <mxPoint x="-409.99999999999955" y="1400" as="targetPoint" />
          </mxGeometry>
        </mxCell>
        <mxCell id="3gxDku77F4ImKOpyEmJM-79" value="residence" style="swimlane;fontStyle=0;childLayout=stackLayout;horizontal=1;startSize=30;horizontalStack=0;resizeParent=1;resizeParentMax=0;resizeLast=0;collapsible=1;marginBottom=0;whiteSpace=wrap;html=1;" parent="1" vertex="1">
          <mxGeometry x="-920" y="1375" width="200" height="120" as="geometry">
            <mxRectangle x="-920" y="1375" width="60" height="30" as="alternateBounds" />
          </mxGeometry>
        </mxCell>
        <mxCell id="3gxDku77F4ImKOpyEmJM-158" value="w1956123 residenceID" style="text;strokeColor=none;fillColor=none;align=left;verticalAlign=middle;spacingLeft=4;spacingRight=4;overflow=hidden;points=[[0,0.5],[1,0.5]];portConstraint=eastwest;rotatable=0;whiteSpace=wrap;html=1;" parent="3gxDku77F4ImKOpyEmJM-79" vertex="1">
          <mxGeometry y="30" width="200" height="30" as="geometry" />
        </mxCell>
        <mxCell id="3gxDku77F4ImKOpyEmJM-159" value="w1956123 residenceName" style="text;strokeColor=none;fillColor=none;align=left;verticalAlign=middle;spacingLeft=4;spacingRight=4;overflow=hidden;points=[[0,0.5],[1,0.5]];portConstraint=eastwest;rotatable=0;whiteSpace=wrap;html=1;" parent="3gxDku77F4ImKOpyEmJM-79" vertex="1">
          <mxGeometry y="60" width="200" height="30" as="geometry" />
        </mxCell>
        <mxCell id="3gxDku77F4ImKOpyEmJM-126" value="w1956123 address" style="text;strokeColor=none;fillColor=none;align=left;verticalAlign=middle;spacingLeft=4;spacingRight=4;overflow=hidden;points=[[0,0.5],[1,0.5]];portConstraint=eastwest;rotatable=0;whiteSpace=wrap;html=1;" parent="3gxDku77F4ImKOpyEmJM-79" vertex="1">
          <mxGeometry y="90" width="200" height="30" as="geometry" />
        </mxCell>
        <mxCell id="3gxDku77F4ImKOpyEmJM-132" style="edgeStyle=orthogonalEdgeStyle;shape=connector;rounded=0;orthogonalLoop=1;jettySize=auto;html=1;exitX=0.5;exitY=0;exitDx=0;exitDy=0;entryX=0.5;entryY=1;entryDx=0;entryDy=0;labelBackgroundColor=default;strokeColor=#d79b00;align=center;verticalAlign=middle;fontFamily=Helvetica;fontSize=11;fontColor=default;endArrow=block;endFill=0;fillColor=#ffe6cc;endSize=15;" parent="1" source="O8HM-fu1kj8_n5oqzd3N-12" target="3tfj7b-K6udZwVdpCUiz-123" edge="1">
          <mxGeometry relative="1" as="geometry">
            <mxPoint x="630" y="570" as="sourcePoint" />
            <mxPoint x="250" y="440" as="targetPoint" />
            <Array as="points">
              <mxPoint x="1020" y="520" />
              <mxPoint x="100" y="520" />
            </Array>
          </mxGeometry>
        </mxCell>
        <mxCell id="VAsdtVh3B15Hhn_zoiJs-12" style="edgeStyle=orthogonalEdgeStyle;rounded=0;orthogonalLoop=1;jettySize=auto;html=1;exitX=0.5;exitY=0.97;exitDx=0;exitDy=0;exitPerimeter=0;endArrow=none;endFill=0;entryX=1;entryY=0.5;entryDx=0;entryDy=0;" parent="1" source="3gxDku77F4ImKOpyEmJM-157" target="3gxDku77F4ImKOpyEmJM-14" edge="1">
          <mxGeometry relative="1" as="geometry">
            <mxPoint x="760" y="1170" as="targetPoint" />
            <Array as="points">
              <mxPoint x="1020" y="1220" />
            </Array>
          </mxGeometry>
        </mxCell>
        <mxCell id="3gxDku77F4ImKOpyEmJM-98" style="edgeStyle=orthogonalEdgeStyle;rounded=0;orthogonalLoop=1;jettySize=auto;html=1;entryX=0.25;entryY=0;entryDx=0;entryDy=0;endArrow=none;endFill=0;" parent="1" source="3gxDku77F4ImKOpyEmJM-74" target="3gxDku77F4ImKOpyEmJM-75" edge="1">
          <mxGeometry relative="1" as="geometry" />
        </mxCell>
        <mxCell id="akNkCJ-vPhZ8xIYkLyeb-3" value="" style="group" parent="1" vertex="1" connectable="0">
          <mxGeometry x="-1280" y="640" width="260" height="210" as="geometry" />
        </mxCell>
        <mxCell id="3gxDku77F4ImKOpyEmJM-74" value="customer" style="swimlane;fontStyle=0;childLayout=stackLayout;horizontal=1;startSize=30;horizontalStack=0;resizeParent=1;resizeParentMax=0;resizeLast=0;collapsible=1;marginBottom=0;whiteSpace=wrap;html=1;" parent="akNkCJ-vPhZ8xIYkLyeb-3" vertex="1">
          <mxGeometry width="200" height="210" as="geometry">
            <mxRectangle x="310" y="310" width="60" height="30" as="alternateBounds" />
          </mxGeometry>
        </mxCell>
        <mxCell id="3gxDku77F4ImKOpyEmJM-107" value="w1956123 customerID" style="text;strokeColor=none;fillColor=none;align=left;verticalAlign=middle;spacingLeft=4;spacingRight=4;overflow=hidden;points=[[0,0.5],[1,0.5]];portConstraint=eastwest;rotatable=0;whiteSpace=wrap;html=1;" parent="3gxDku77F4ImKOpyEmJM-74" vertex="1">
          <mxGeometry y="30" width="200" height="30" as="geometry" />
        </mxCell>
        <mxCell id="3gxDku77F4ImKOpyEmJM-109" value="w1956123 firstName" style="text;strokeColor=none;fillColor=none;align=left;verticalAlign=middle;spacingLeft=4;spacingRight=4;overflow=hidden;points=[[0,0.5],[1,0.5]];portConstraint=eastwest;rotatable=0;whiteSpace=wrap;html=1;" parent="3gxDku77F4ImKOpyEmJM-74" vertex="1">
          <mxGeometry y="60" width="200" height="30" as="geometry" />
        </mxCell>
        <mxCell id="3gxDku77F4ImKOpyEmJM-110" value="w1956123 lastName" style="text;strokeColor=none;fillColor=none;align=left;verticalAlign=middle;spacingLeft=4;spacingRight=4;overflow=hidden;points=[[0,0.5],[1,0.5]];portConstraint=eastwest;rotatable=0;whiteSpace=wrap;html=1;" parent="3gxDku77F4ImKOpyEmJM-74" vertex="1">
          <mxGeometry y="90" width="200" height="30" as="geometry" />
        </mxCell>
        <mxCell id="3gxDku77F4ImKOpyEmJM-112" value="w1956123 dateOfBirth" style="text;strokeColor=none;fillColor=none;align=left;verticalAlign=middle;spacingLeft=4;spacingRight=4;overflow=hidden;points=[[0,0.5],[1,0.5]];portConstraint=eastwest;rotatable=0;whiteSpace=wrap;html=1;" parent="3gxDku77F4ImKOpyEmJM-74" vertex="1">
          <mxGeometry y="120" width="200" height="30" as="geometry" />
        </mxCell>
        <mxCell id="3gxDku77F4ImKOpyEmJM-113" value="w1956123 contactNum" style="text;strokeColor=none;fillColor=none;align=left;verticalAlign=middle;spacingLeft=4;spacingRight=4;overflow=hidden;points=[[0,0.5],[1,0.5]];portConstraint=eastwest;rotatable=0;whiteSpace=wrap;html=1;" parent="3gxDku77F4ImKOpyEmJM-74" vertex="1">
          <mxGeometry y="150" width="200" height="30" as="geometry" />
        </mxCell>
        <mxCell id="3gxDku77F4ImKOpyEmJM-146" value="w1956123 email" style="text;strokeColor=none;fillColor=none;align=left;verticalAlign=middle;spacingLeft=4;spacingRight=4;overflow=hidden;points=[[0,0.5],[1,0.5]];portConstraint=eastwest;rotatable=0;whiteSpace=wrap;html=1;" parent="3gxDku77F4ImKOpyEmJM-74" vertex="1">
          <mxGeometry y="180" width="200" height="30" as="geometry" />
        </mxCell>
        <mxCell id="akNkCJ-vPhZ8xIYkLyeb-1" value="0..1" style="text;html=1;strokeColor=none;fillColor=none;align=center;verticalAlign=middle;whiteSpace=wrap;rounded=0;" parent="akNkCJ-vPhZ8xIYkLyeb-3" vertex="1">
          <mxGeometry x="200" y="85" width="30" height="20" as="geometry" />
        </mxCell>
        <mxCell id="akNkCJ-vPhZ8xIYkLyeb-21" value="fitness classes under the guidance of a fitness instructor&lt;br&gt;fitness instructors run the exercise classes for well-being" style="text;html=1;align=left;verticalAlign=middle;resizable=0;points=[];autosize=1;strokeColor=none;fillColor=none;" parent="1" vertex="1">
          <mxGeometry x="560" y="1405" width="320" height="40" as="geometry" />
        </mxCell>
        <mxCell id="akNkCJ-vPhZ8xIYkLyeb-24" value="1..*" style="text;html=1;strokeColor=none;fillColor=none;align=center;verticalAlign=middle;whiteSpace=wrap;rounded=0;" parent="1" vertex="1">
          <mxGeometry x="140" y="820" width="30" height="20" as="geometry" />
        </mxCell>
        <mxCell id="akNkCJ-vPhZ8xIYkLyeb-25" value="0..1" style="text;html=1;strokeColor=none;fillColor=none;align=center;verticalAlign=middle;whiteSpace=wrap;rounded=0;" parent="1" vertex="1">
          <mxGeometry x="140" y="940" width="30" height="20" as="geometry" />
        </mxCell>
        <mxCell id="6Exis9yLlak__4d9PDnf-10" value="1..1" style="text;html=1;strokeColor=none;fillColor=none;align=center;verticalAlign=middle;whiteSpace=wrap;rounded=0;" vertex="1" parent="1">
          <mxGeometry x="-990" y="860" width="30" height="20" as="geometry" />
        </mxCell>
        <mxCell id="6Exis9yLlak__4d9PDnf-11" value="1..*" style="text;html=1;strokeColor=none;fillColor=none;align=center;verticalAlign=middle;whiteSpace=wrap;rounded=0;" vertex="1" parent="1">
          <mxGeometry x="-890" y="860" width="30" height="20" as="geometry" />
        </mxCell>
        <mxCell id="6Exis9yLlak__4d9PDnf-12" value="1..1" style="text;html=1;strokeColor=none;fillColor=none;align=center;verticalAlign=middle;whiteSpace=wrap;rounded=0;" vertex="1" parent="1">
          <mxGeometry x="-660" y="650" width="30" height="20" as="geometry" />
        </mxCell>
        <mxCell id="6Exis9yLlak__4d9PDnf-13" value="1..*" style="text;html=1;strokeColor=none;fillColor=none;align=center;verticalAlign=middle;whiteSpace=wrap;rounded=0;" vertex="1" parent="1">
          <mxGeometry x="380" y="820" width="30" height="20" as="geometry" />
        </mxCell>
        <mxCell id="6Exis9yLlak__4d9PDnf-14" value="0..1" style="text;html=1;strokeColor=none;fillColor=none;align=center;verticalAlign=middle;whiteSpace=wrap;rounded=0;" vertex="1" parent="1">
          <mxGeometry x="380" y="940" width="30" height="20" as="geometry" />
        </mxCell>
        <mxCell id="6Exis9yLlak__4d9PDnf-15" value="1..*" style="text;html=1;strokeColor=none;fillColor=none;align=center;verticalAlign=middle;whiteSpace=wrap;rounded=0;" vertex="1" parent="1">
          <mxGeometry x="-190" y="650" width="30" height="20" as="geometry" />
        </mxCell>
        <mxCell id="6Exis9yLlak__4d9PDnf-16" value="0..1" style="text;html=1;strokeColor=none;fillColor=none;align=center;verticalAlign=middle;whiteSpace=wrap;rounded=0;" vertex="1" parent="1">
          <mxGeometry x="-100" y="940" width="30" height="20" as="geometry" />
        </mxCell>
        <mxCell id="6Exis9yLlak__4d9PDnf-17" value="0..*" style="text;html=1;strokeColor=none;fillColor=none;align=center;verticalAlign=middle;whiteSpace=wrap;rounded=0;" vertex="1" parent="1">
          <mxGeometry x="-380" y="870" width="30" height="20" as="geometry" />
        </mxCell>
        <mxCell id="6Exis9yLlak__4d9PDnf-18" value="1..1" style="text;html=1;strokeColor=none;fillColor=none;align=center;verticalAlign=middle;whiteSpace=wrap;rounded=0;" vertex="1" parent="1">
          <mxGeometry x="-290" y="650" width="30" height="20" as="geometry" />
        </mxCell>
        <mxCell id="6Exis9yLlak__4d9PDnf-19" value="0..*" style="text;html=1;strokeColor=none;fillColor=none;align=center;verticalAlign=middle;whiteSpace=wrap;rounded=0;" vertex="1" parent="1">
          <mxGeometry x="-1310" y="725" width="30" height="20" as="geometry" />
        </mxCell>
        <mxCell id="6Exis9yLlak__4d9PDnf-20" value="1..1" style="text;html=1;strokeColor=none;fillColor=none;align=center;verticalAlign=middle;whiteSpace=wrap;rounded=0;" vertex="1" parent="1">
          <mxGeometry x="-950" y="1415" width="30" height="20" as="geometry" />
        </mxCell>
        <mxCell id="6Exis9yLlak__4d9PDnf-21" value="Business Questions&lt;br&gt;1. What is the minimum and maximum number of staff members that can conduct an experience?&lt;br&gt;&lt;br&gt;2. Do customers have to stay at the provided accommodations in order to participate in the experiences and have meals at the dining suites?&lt;br&gt;- Yes they must stay at the residences&lt;br&gt;&lt;br&gt;3. Can housekeeping attendants be assigned multiple accommodations to maintain?&lt;br&gt;- Yes&amp;nbsp;&lt;br&gt;&lt;br&gt;4. Do any of the residences have more than one dining suite?&lt;br&gt;- Yes&lt;br&gt;&lt;br&gt;5. Do many buses go on the same excursion?&lt;br&gt;- Yes&lt;br&gt;&lt;br&gt;&lt;br&gt;&lt;br&gt;&lt;br&gt;3* How many housekeeping attendants are allocated to maintain an accommodation and ?&lt;br style=&quot;border-color: var(--border-color);&quot;&gt;- One accommodation must have at least 1 attendant and at most 1" style="rounded=1;whiteSpace=wrap;html=1;align=left;" vertex="1" parent="1">
          <mxGeometry x="360" y="1920" width="600" height="400" as="geometry" />
        </mxCell>
        <mxCell id="6Exis9yLlak__4d9PDnf-22" value="1..*" style="text;html=1;strokeColor=none;fillColor=none;align=center;verticalAlign=middle;whiteSpace=wrap;rounded=0;" vertex="1" parent="1">
          <mxGeometry x="-390" y="1415" width="30" height="20" as="geometry" />
        </mxCell>
        <mxCell id="6Exis9yLlak__4d9PDnf-23" value="1..1" style="text;html=1;strokeColor=none;fillColor=none;align=center;verticalAlign=middle;whiteSpace=wrap;rounded=0;" vertex="1" parent="1">
          <mxGeometry x="-720" y="1415" width="30" height="20" as="geometry" />
        </mxCell>
        <mxCell id="6Exis9yLlak__4d9PDnf-24" value="1..1" style="text;html=1;strokeColor=none;fillColor=none;align=center;verticalAlign=middle;whiteSpace=wrap;rounded=0;" vertex="1" parent="1">
          <mxGeometry x="-260" y="1340" width="30" height="20" as="geometry" />
        </mxCell>
        <mxCell id="6Exis9yLlak__4d9PDnf-26" value="0..*" style="text;html=1;strokeColor=none;fillColor=none;align=center;verticalAlign=middle;whiteSpace=wrap;rounded=0;" vertex="1" parent="1">
          <mxGeometry x="-260" y="1250" width="30" height="20" as="geometry" />
        </mxCell>
        <mxCell id="6Exis9yLlak__4d9PDnf-27" value="1..1" style="text;html=1;strokeColor=none;fillColor=none;align=center;verticalAlign=middle;whiteSpace=wrap;rounded=0;" vertex="1" parent="1">
          <mxGeometry x="-820" y="1495" width="30" height="20" as="geometry" />
        </mxCell>
        <mxCell id="6Exis9yLlak__4d9PDnf-28" value="0..*" style="text;html=1;strokeColor=none;fillColor=none;align=center;verticalAlign=middle;whiteSpace=wrap;rounded=0;" vertex="1" parent="1">
          <mxGeometry x="10" y="1185" width="30" height="20" as="geometry" />
        </mxCell>
        <mxCell id="6Exis9yLlak__4d9PDnf-29" value="1..1" style="text;html=1;strokeColor=none;fillColor=none;align=center;verticalAlign=middle;whiteSpace=wrap;rounded=0;" vertex="1" parent="1">
          <mxGeometry x="730" y="690" width="30" height="20" as="geometry" />
        </mxCell>
        <mxCell id="6Exis9yLlak__4d9PDnf-30" value="1..1" style="text;html=1;strokeColor=none;fillColor=none;align=center;verticalAlign=middle;whiteSpace=wrap;rounded=0;" vertex="1" parent="1">
          <mxGeometry x="670" y="650" width="30" height="20" as="geometry" />
        </mxCell>
        <mxCell id="6Exis9yLlak__4d9PDnf-31" value="1..*" style="text;html=1;strokeColor=none;fillColor=none;align=center;verticalAlign=middle;whiteSpace=wrap;rounded=0;" vertex="1" parent="1">
          <mxGeometry x="1020" y="680" width="30" height="20" as="geometry" />
        </mxCell>
        <mxCell id="6Exis9yLlak__4d9PDnf-41" value="1..1" style="text;html=1;strokeColor=none;fillColor=none;align=center;verticalAlign=middle;whiteSpace=wrap;rounded=0;" vertex="1" parent="1">
          <mxGeometry x="-840" y="950" width="30" height="20" as="geometry" />
        </mxCell>
        <mxCell id="6Exis9yLlak__4d9PDnf-42" value="0..*" style="text;html=1;strokeColor=none;fillColor=none;align=center;verticalAlign=middle;whiteSpace=wrap;rounded=0;" vertex="1" parent="1">
          <mxGeometry x="-630" y="1170" width="30" height="20" as="geometry" />
        </mxCell>
        <mxCell id="6Exis9yLlak__4d9PDnf-46" value="0..1" style="text;html=1;strokeColor=none;fillColor=none;align=center;verticalAlign=middle;whiteSpace=wrap;rounded=0;" vertex="1" parent="1">
          <mxGeometry x="670" y="940" width="30" height="20" as="geometry" />
        </mxCell>
        <mxCell id="6Exis9yLlak__4d9PDnf-47" value="1..*" style="text;html=1;strokeColor=none;fillColor=none;align=center;verticalAlign=middle;whiteSpace=wrap;rounded=0;" vertex="1" parent="1">
          <mxGeometry x="730" y="890" width="30" height="20" as="geometry" />
        </mxCell>
        <mxCell id="6Exis9yLlak__4d9PDnf-50" value="" style="group" vertex="1" connectable="0" parent="1">
          <mxGeometry x="340" y="1360" width="200" height="260" as="geometry" />
        </mxCell>
        <mxCell id="3gxDku77F4ImKOpyEmJM-20" value="experience" style="swimlane;fontStyle=0;childLayout=stackLayout;horizontal=1;startSize=30;horizontalStack=0;resizeParent=1;resizeParentMax=0;resizeLast=0;collapsible=1;marginBottom=0;whiteSpace=wrap;html=1;" parent="6Exis9yLlak__4d9PDnf-50" vertex="1">
          <mxGeometry width="200" height="240" as="geometry">
            <mxRectangle x="370" y="1390" width="60" height="30" as="alternateBounds" />
          </mxGeometry>
        </mxCell>
        <mxCell id="3gxDku77F4ImKOpyEmJM-21" value="w1956123 experienceID" style="text;strokeColor=none;fillColor=none;align=left;verticalAlign=middle;spacingLeft=4;spacingRight=4;overflow=hidden;points=[[0,0.5],[1,0.5]];portConstraint=eastwest;rotatable=0;whiteSpace=wrap;html=1;" parent="3gxDku77F4ImKOpyEmJM-20" vertex="1">
          <mxGeometry y="30" width="200" height="30" as="geometry" />
        </mxCell>
        <mxCell id="6Exis9yLlak__4d9PDnf-43" value="w1956123 experienceType" style="text;strokeColor=none;fillColor=none;align=left;verticalAlign=middle;spacingLeft=4;spacingRight=4;overflow=hidden;points=[[0,0.5],[1,0.5]];portConstraint=eastwest;rotatable=0;whiteSpace=wrap;html=1;" vertex="1" parent="3gxDku77F4ImKOpyEmJM-20">
          <mxGeometry y="60" width="200" height="30" as="geometry" />
        </mxCell>
        <mxCell id="3gxDku77F4ImKOpyEmJM-141" value="w1956123 participantCapacity" style="text;strokeColor=none;fillColor=none;align=left;verticalAlign=middle;spacingLeft=4;spacingRight=4;overflow=hidden;points=[[0,0.5],[1,0.5]];portConstraint=eastwest;rotatable=0;whiteSpace=wrap;html=1;" parent="3gxDku77F4ImKOpyEmJM-20" vertex="1">
          <mxGeometry y="90" width="200" height="30" as="geometry" />
        </mxCell>
        <mxCell id="3gxDku77F4ImKOpyEmJM-140" value="w1956123 duration" style="text;strokeColor=none;fillColor=none;align=left;verticalAlign=middle;spacingLeft=4;spacingRight=4;overflow=hidden;points=[[0,0.5],[1,0.5]];portConstraint=eastwest;rotatable=0;whiteSpace=wrap;html=1;" parent="3gxDku77F4ImKOpyEmJM-20" vertex="1">
          <mxGeometry y="120" width="200" height="30" as="geometry" />
        </mxCell>
        <mxCell id="3gxDku77F4ImKOpyEmJM-142" value="w1956123 description" style="text;strokeColor=none;fillColor=none;align=left;verticalAlign=middle;spacingLeft=4;spacingRight=4;overflow=hidden;points=[[0,0.5],[1,0.5]];portConstraint=eastwest;rotatable=0;whiteSpace=wrap;html=1;" parent="3gxDku77F4ImKOpyEmJM-20" vertex="1">
          <mxGeometry y="150" width="200" height="30" as="geometry" />
        </mxCell>
        <mxCell id="3gxDku77F4ImKOpyEmJM-22" value="w1956123 schedule" style="text;strokeColor=none;fillColor=none;align=left;verticalAlign=middle;spacingLeft=4;spacingRight=4;overflow=hidden;points=[[0,0.5],[1,0.5]];portConstraint=eastwest;rotatable=0;whiteSpace=wrap;html=1;" parent="3gxDku77F4ImKOpyEmJM-20" vertex="1">
          <mxGeometry y="180" width="200" height="30" as="geometry" />
        </mxCell>
        <mxCell id="3gxDku77F4ImKOpyEmJM-147" value="w1956123 price" style="text;strokeColor=none;fillColor=none;align=left;verticalAlign=middle;spacingLeft=4;spacingRight=4;overflow=hidden;points=[[0,0.5],[1,0.5]];portConstraint=eastwest;rotatable=0;whiteSpace=wrap;html=1;" parent="3gxDku77F4ImKOpyEmJM-20" vertex="1">
          <mxGeometry y="210" width="200" height="30" as="geometry" />
        </mxCell>
        <mxCell id="akNkCJ-vPhZ8xIYkLyeb-20" value="0..*" style="text;html=1;strokeColor=none;fillColor=none;align=center;verticalAlign=middle;whiteSpace=wrap;rounded=0;" parent="6Exis9yLlak__4d9PDnf-50" vertex="1">
          <mxGeometry x="70" y="240" width="30" height="20" as="geometry" />
        </mxCell>
        <mxCell id="6Exis9yLlak__4d9PDnf-51" value="0..1" style="text;html=1;strokeColor=none;fillColor=none;align=center;verticalAlign=middle;whiteSpace=wrap;rounded=0;" vertex="1" parent="1">
          <mxGeometry x="840" y="1200" width="30" height="20" as="geometry" />
        </mxCell>
        <mxCell id="6Exis9yLlak__4d9PDnf-52" value="0..1" style="text;html=1;strokeColor=none;fillColor=none;align=center;verticalAlign=middle;whiteSpace=wrap;rounded=0;" vertex="1" parent="1">
          <mxGeometry x="570" y="940" width="30" height="20" as="geometry" />
        </mxCell>
        <mxCell id="6Exis9yLlak__4d9PDnf-53" value="1..*" style="text;html=1;strokeColor=none;fillColor=none;align=center;verticalAlign=middle;whiteSpace=wrap;rounded=0;" vertex="1" parent="1">
          <mxGeometry x="570" y="650" width="30" height="20" as="geometry" />
        </mxCell>
        <mxCell id="6Exis9yLlak__4d9PDnf-54" value="Business Questions&lt;br&gt;1. Can any of the on-site experiences have more than one staff member conducting the class? If so, please specify which experiences.&lt;br&gt;&lt;br&gt;2. Do customers have to stay at the provided accommodations in order to participate in the experiences and have meals at the dining suites?&lt;br&gt;&lt;br&gt;3. Can a customer book more than one accommodation?&lt;br&gt;&lt;br&gt;4. Can housekeeping attendants be assigned multiple accommodations to maintain?&lt;br&gt;&lt;br&gt;5. Do any of the residences have more than one dining suite?" style="rounded=1;whiteSpace=wrap;html=1;align=left;" vertex="1" parent="1">
          <mxGeometry x="-240" y="2370" width="600" height="400" as="geometry" />
        </mxCell>
        <mxCell id="6Exis9yLlak__4d9PDnf-55" value="1..*" style="text;html=1;strokeColor=none;fillColor=none;align=center;verticalAlign=middle;whiteSpace=wrap;rounded=0;" vertex="1" parent="1">
          <mxGeometry x="-1070" y="950" width="30" height="20" as="geometry" />
        </mxCell>
      </root>
    </mxGraphModel>
  </diagram>
</mxfile>
